<svg width="15" height="16" viewBox="0 0 15 16" fill="none" xmlns="http://www.w3.org/2000/svg">
<path d="M5.56898 3.31124V3.54735L5.80471 3.56083C10.8756 3.85094 14.5628 8.45239 14.5629 14.8344C14.5629 14.9886 14.4563 15.1083 14.3272 15.1302L14.3267 15.1302C14.3126 15.1327 14.2985 15.1338 14.2846 15.1338H14.2839C14.17 15.1337 14.0607 15.0576 14.0202 14.932C13.4193 13.0597 12.4454 11.631 11.0719 10.6547C9.70022 9.67969 7.95178 9.17136 5.82743 9.09959L5.56898 9.09086V9.34945L5.56898 12.0867C5.56898 12.0868 5.56898 12.0869 5.56898 12.0869C5.56873 12.1799 5.52833 12.2653 5.46307 12.3208C5.3463 12.4199 5.17531 12.4042 5.07684 12.2792L5.07684 12.2792L0.315655 6.23587C0.315609 6.23581 0.315563 6.23575 0.315517 6.23569C0.224682 6.1198 0.228898 5.9502 0.324429 5.83959C0.324462 5.83955 0.324494 5.83952 0.324527 5.83948L5.08565 0.345543C5.08568 0.345507 5.08571 0.345471 5.08574 0.345435C5.13979 0.283212 5.21428 0.250016 5.28982 0.25L5.28985 0.25C5.43512 0.249952 5.56889 0.374933 5.56898 0.549276C5.56898 0.549302 5.56898 0.549327 5.56898 0.549353V3.31124Z" fill="url(#paint0_linear_6590_25048)" stroke="#4C4C4C" stroke-width="0.5"/>
<defs>
<linearGradient id="paint0_linear_6590_25048" x1="7.40643" y1="0" x2="7.40643" y2="10.439" gradientUnits="userSpaceOnUse">
<stop stop-color="#0090FF"/>
<stop offset="1" stop-color="white"/>
</linearGradient>
</defs>
</svg>
