<svg viewBox="0 0 17 17" fill="none" xmlns="http://www.w3.org/2000/svg">
<path opacity="0.9" d="M10.766 10.2463C10.6003 10.2463 10.466 10.3806 10.466 10.5463L10.466 13.2463C10.466 13.412 10.6003 13.5463 10.766 13.5463C10.9317 13.5463 11.066 13.412 11.066 13.2463V10.8463H13.466C13.6317 10.8463 13.766 10.712 13.766 10.5463C13.766 10.3806 13.6317 10.2463 13.466 10.2463L10.766 10.2463ZM16.635 15.991L10.9781 10.3341L10.5539 10.7584L16.2107 16.4153L16.635 15.991Z" fill="#4C4C4C"/>
<path opacity="0.9" d="M6.71057 6.90119C6.87625 6.90119 7.01057 6.76688 7.01057 6.60119L7.01057 3.90119C7.01057 3.7355 6.87625 3.60119 6.71057 3.60119C6.54488 3.60119 6.41057 3.7355 6.41057 3.90119V6.30119H4.01057C3.84488 6.30119 3.71057 6.4355 3.71057 6.60119C3.71056 6.76688 3.84488 6.90119 4.01057 6.90119L6.71057 6.90119ZM0.841579 1.15647L6.49843 6.81332L6.9227 6.38906L1.26584 0.732204L0.841579 1.15647Z" fill="#4C4C4C"/>
</svg>
