<svg width="17" height="17" viewBox="0 0 17 17" fill="none" xmlns="http://www.w3.org/2000/svg">
<path opacity="0.9" d="M10.766 10.0463C10.4899 10.0463 10.266 10.2701 10.266 10.5463L10.266 15.0463C10.266 15.3224 10.4899 15.5463 10.766 15.5463C11.0421 15.5463 11.266 15.3224 11.266 15.0463V11.0463H15.266C15.5421 11.0463 15.766 10.8224 15.766 10.5463C15.766 10.2701 15.5421 10.0463 15.266 10.0463L10.766 10.0463ZM16.7764 15.8496L11.1196 10.1927L10.4124 10.8998L16.0693 16.5567L16.7764 15.8496Z" fill="#4C4C4C"/>
<path opacity="0.9" d="M6.71057 7.10119C6.98671 7.10119 7.21057 6.87733 7.21057 6.60119L7.21057 2.10119C7.21057 1.82505 6.98671 1.60119 6.71057 1.60119C6.43442 1.60119 6.21057 1.82505 6.21057 2.10119V6.10119H2.21057C1.93442 6.10119 1.71057 6.32505 1.71057 6.60119C1.71057 6.87733 1.93442 7.10119 2.21057 7.10119L6.71057 7.10119ZM0.700158 1.29789L6.35701 6.95474L7.06412 6.24764L1.40726 0.590783L0.700158 1.29789Z" fill="#4C4C4C"/>
</svg>
