<svg  viewBox="0 0 17 17" fill="none" xmlns="http://www.w3.org/2000/svg">
<path opacity="0.9" d="M16.4225 16.5028C16.5882 16.5028 16.7225 16.3684 16.7225 16.2028L16.7225 13.5028C16.7225 13.3371 16.5882 13.2028 16.4225 13.2028C16.2568 13.2028 16.1225 13.3371 16.1225 13.5028V15.9028H13.7225C13.5568 15.9028 13.4225 16.0371 13.4225 16.2028C13.4225 16.3684 13.5568 16.5028 13.7225 16.5028L16.4225 16.5028ZM10.5535 10.758L16.2103 16.4149L16.6346 15.9906L10.9778 10.3338L10.5535 10.758Z" fill="#4C4C4C"/>
<path opacity="0.9" d="M0.993773 0.700401C0.828119 0.70363 0.696447 0.840536 0.699675 1.00619L0.752286 3.70568C0.755515 3.87133 0.892421 4.003 1.05807 3.99978C1.22373 3.99655 1.3554 3.85964 1.35217 3.69399L1.30541 1.29444L3.70495 1.24768C3.87061 1.24445 4.00228 1.10754 3.99905 0.941888C3.99582 0.776235 3.85891 0.644563 3.69326 0.647791L0.993773 0.700401ZM6.97358 6.32967L1.20758 0.78412L0.79166 1.21657L6.55767 6.76212L6.97358 6.32967Z" fill="#4C4C4C"/>
</svg>
