<svg width="18" height="18" viewBox="0 0 18 18" fill="none" xmlns="http://www.w3.org/2000/svg">
<path opacity="0.9" d="M16.6569 17.1569C16.933 17.1569 17.1569 16.933 17.1569 16.6569L17.1569 12.1569C17.1569 11.8807 16.933 11.6569 16.6569 11.6569C16.3807 11.6569 16.1569 11.8807 16.1569 12.1569V16.1569H12.1569C11.8807 16.1569 11.6569 16.3807 11.6569 16.6569C11.6569 16.933 11.8807 17.1569 12.1569 17.1569L16.6569 17.1569ZM10.6464 11.3536L16.3033 17.0104L17.0104 16.3033L11.3536 10.6464L10.6464 11.3536Z" fill="#656565"/>
<path opacity="0.9" d="M1.22425 0.954541C0.948161 0.959922 0.728708 1.1881 0.734088 1.46419L0.821773 5.96333C0.827154 6.23942 1.05533 6.45888 1.33142 6.4535C1.60751 6.44812 1.82696 6.21994 1.82158 5.94385L1.74364 1.94461L5.74288 1.86667C6.01897 1.86129 6.23842 1.63311 6.23304 1.35702C6.22766 1.08093 5.99949 0.861476 5.7234 0.866857L1.22425 0.954541ZM7.3466 6.63962L1.58059 1.09407L0.887396 1.81482L6.6534 7.36038L7.3466 6.63962Z" fill="#656565"/>
</svg>
