<svg width="30" height="9" viewBox="0 0 30 9" fill="none" xmlns="http://www.w3.org/2000/svg">
<path d="M4.24316 8.12207C3.24056 8.12207 2.4235 7.79655 1.79199 7.14551C1.16048 6.49121 0.844727 5.63997 0.844727 4.5918C0.844727 3.48503 1.16536 2.58984 1.80664 1.90625C2.44792 1.22266 3.29753 0.880859 4.35547 0.880859C5.35482 0.880859 6.16211 1.20801 6.77734 1.8623C7.39583 2.5166 7.70508 3.37923 7.70508 4.4502C7.70508 5.55046 7.38444 6.4375 6.74316 7.11133C6.10514 7.78516 5.27181 8.12207 4.24316 8.12207ZM4.31152 2.23828C3.75814 2.23828 3.31868 2.44661 2.99316 2.86328C2.66764 3.27669 2.50488 3.8252 2.50488 4.50879C2.50488 5.20215 2.66764 5.75065 2.99316 6.1543C3.31868 6.55794 3.74512 6.75977 4.27246 6.75977C4.81608 6.75977 5.2474 6.56445 5.56641 6.17383C5.88542 5.77995 6.04492 5.2347 6.04492 4.53809C6.04492 3.81217 5.8903 3.2474 5.58105 2.84375C5.27181 2.4401 4.84863 2.23828 4.31152 2.23828ZM12.4609 4.17188H11.123V8H9.57031V4.17188H8.22266V3H12.4609V4.17188ZM17.6172 5.93945H14.3555C14.4076 6.66536 14.8649 7.02832 15.7275 7.02832C16.2777 7.02832 16.7611 6.89811 17.1777 6.6377V7.75098C16.7155 7.99837 16.1149 8.12207 15.376 8.12207C14.5687 8.12207 13.9421 7.89909 13.4961 7.45312C13.0501 7.00391 12.8271 6.37891 12.8271 5.57812C12.8271 4.74805 13.068 4.09049 13.5498 3.60547C14.0316 3.12044 14.624 2.87793 15.3271 2.87793C16.0563 2.87793 16.6195 3.0944 17.0166 3.52734C17.417 3.96029 17.6172 4.54785 17.6172 5.29004V5.93945ZM16.1865 4.99219C16.1865 4.27604 15.8968 3.91797 15.3174 3.91797C15.07 3.91797 14.8551 4.02051 14.6729 4.22559C14.4938 4.43066 14.3848 4.6862 14.3457 4.99219H16.1865ZM23.2666 8H21.7139V4.08887H20.8643C20.6852 5.60254 20.4167 6.64258 20.0586 7.20898C19.7038 7.77539 19.2057 8.05859 18.5645 8.05859C18.3431 8.05859 18.1429 8.02604 17.9639 7.96094V6.91113C18.0778 6.96322 18.1982 6.98926 18.3252 6.98926C18.6312 6.98926 18.8851 6.70443 19.0869 6.13477C19.2887 5.5651 19.471 4.52018 19.6338 3H23.2666V8ZM24.5703 8V3H26.1133V4.74805H27.4316C27.998 4.74805 28.4391 4.88639 28.7549 5.16309C29.0706 5.43652 29.2285 5.82227 29.2285 6.32031C29.2285 6.83138 29.0723 7.23991 28.7598 7.5459C28.4473 7.84863 28.0143 8 27.4609 8H24.5703ZM26.1133 5.71973V7.01855H26.8604C27.3812 7.01855 27.6416 6.79557 27.6416 6.34961C27.6416 5.92969 27.3877 5.71973 26.8799 5.71973H26.1133Z" fill="white"/>
</svg>
